<svg xmlns="http://www.w3.org/2000/svg" viewBox="0 0 64 64" id="writing">
  <path fill="#4b8abc" d="M34.69 56.5H16.58a1 1 0 1 1 0-2h18.11a1 1 0 0 1 0 2Z" class="color222222 svgShape"></path>
  <path fill="#4b8abc" d="M16.24 56.59a1 1 0 0 1-1-1C16 34.6 26 21.52 29.08 18 34 12.4 45.54 5.38 53.35 3.27a1 1 0 0 1 .52 1.93c-7.5 2-18.59 8.76-23.28 14.13-3 3.38-12.66 16-13.36 36.3a1 1 0 0 1-.99.96Z" class="color222222 svgShape"></path>
  <path fill="#4b8abc" d="M29.12 12.57a1 1 0 0 1-.61-.21 1 1 0 0 1-.18-1.4c3.3-4.3 10.38-9.13 25.37-7.72a1 1 0 0 1-.19 2c-14.07-1.32-20.6 3-23.59 7a1 1 0 0 1-.8.33zM14.81 40.6a1 1 0 0 1-.82-.43c-4.51-6.44-2.57-11-.7-15.45l.12-.28a1 1 0 0 1 .72-.59 1 1 0 0 1 .9.26l2.19 2.14C18 22.57 20 14.42 23.39 10.83a1 1 0 0 1 1.3-.13c.49.34 3 2.16 3.29 4A1 1 0 1 1 26 15a5.29 5.29 0 0 0-1.75-2.14c-3.55 4.66-5.4 15.42-5.42 15.54a1 1 0 0 1-1.68.55l-2.48-2.41c-1.64 4-2.62 7.37.94 12.45a1 1 0 0 1-.24 1.4 1 1 0 0 1-.56.21z" class="color222222 svgShape"></path>
  <path fill="#4b8abc" d="M34.92 33.8h-.14l-5-.7a1 1 0 0 1-.84-.82 1 1 0 0 1 .52-1.05c.05 0 4.76-2.5 7-5.92 1.32-2 2.38-3.77 3.06-4.94H36.7a1 1 0 0 1-.5-1.86 57.66 57.66 0 0 0 7.33-4.7 9 9 0 0 0 .52-.9 25.77 25.77 0 0 1 7.81-9.13 1 1 0 0 1 1.39.22A1 1 0 0 1 53 5.4a23.6 23.6 0 0 0-7.21 8.46 10.61 10.61 0 0 1-.66 1.14 26.38 26.38 0 0 1-4.77 3.35h.92a1 1 0 0 1 .86.49 1 1 0 0 1 0 1c-.06.12-1.57 2.88-4 6.56a20 20 0 0 1-5.31 5.1l2.2.31a1 1 0 0 1-.14 2zM22 43.89a26.6 26.6 0 0 1-4.14-.37 1 1 0 1 1 .31-2c5 .79 8.7.46 12.59-3.55a22.7 22.7 0 0 0 1.54-1.74 1 1 0 0 1 1.4-.16 1 1 0 0 1 .17 1.41c-.48.6-1 1.23-1.67 1.88A13.26 13.26 0 0 1 22 43.89zM49.19 56.5h-9.71a1 1 0 1 1 0-2h9.71a1 1 0 0 1 0 2zM41.47 61H10.39a1 1 0 0 1 0-2h31.08a1 1 0 0 1 0 2z" class="color222222 svgShape"></path>
</svg>